<svg width="16" height="16" viewBox="0 0 16 16" fill="none" xmlns="http://www.w3.org/2000/svg">
<path d="M4 7.3335C4 5.44788 4 4.50507 4.58579 3.91928C5.17157 3.3335 6.11438 3.3335 8 3.3335H10C11.8856 3.3335 12.8284 3.3335 13.4142 3.91928C14 4.50507 14 5.44788 14 7.3335V10.6668C14 12.5524 14 13.4953 13.4142 14.081C12.8284 14.6668 11.8856 14.6668 10 14.6668H8C6.11438 14.6668 5.17157 14.6668 4.58579 14.081C4 13.4953 4 12.5524 4 10.6668V7.3335Z" stroke="#464648" stroke-width="1.25"/>
<path d="M4 12.6668C2.89543 12.6668 2 11.7714 2 10.6668V6.66683C2 4.15267 2 2.89559 2.78105 2.11454C3.5621 1.3335 4.81918 1.3335 7.33333 1.3335H10C11.1046 1.3335 12 2.22893 12 3.3335" stroke="#464648" stroke-width="1.25"/>
</svg>
